<svg width="83" height="96" viewBox="0 0 83 96" fill="none" xmlns="http://www.w3.org/2000/svg">
<path d="M48.6144 5.50575L19.7766 13.7749C12.875 15.7539 8.88444 22.953 10.8634 29.8546L25.4722 80.8014C27.4512 87.703 34.6503 91.6935 41.5519 89.7145L70.3898 81.4454C77.2913 79.4664 81.2819 72.2673 79.3029 65.3657L64.6941 14.4189C62.7151 7.51729 55.516 3.52675 48.6144 5.50575Z" fill="#B0A695"/>
<path d="M41.3343 5.51271L12.4964 13.7818C5.59483 15.7608 1.60429 22.9599 3.58329 29.8615L18.1921 80.8084C20.1711 87.71 27.3702 91.7005 34.2718 89.7215L63.1096 81.4524C70.0112 79.4734 74.0017 72.2743 72.0227 65.3727L57.4139 14.4258C55.4349 7.52425 48.2358 3.53371 41.3343 5.51271Z" fill="#615548"/>
<path d="M36.5418 21.4511L15.3941 27.5151C14.3323 27.8196 13.7184 28.9271 14.0228 29.9889C14.3273 31.0507 15.4348 31.6646 16.4966 31.3602L37.6444 25.2962C38.7062 24.9917 39.3201 23.8841 39.0156 22.8224C38.7112 21.7606 37.6036 21.1466 36.5418 21.4511Z" fill="#F3EEEA"/>
<path d="M28.9999 35.057L18.4261 38.089C17.3643 38.3934 16.7504 39.501 17.0548 40.5628C17.3593 41.6246 18.4668 42.2385 19.5286 41.934L30.1025 38.902C31.1643 38.5976 31.7782 37.49 31.4737 36.4282C31.1693 35.3664 30.0617 34.7525 28.9999 35.057Z" fill="#F3EEEA"/>
<path d="M42.6058 42.5988L21.458 48.6628C20.3963 48.9673 19.7823 50.0749 20.0868 51.1366C20.3913 52.1984 21.4988 52.8123 22.5606 52.5079L43.7084 46.4439C44.7701 46.1394 45.3841 45.0318 45.0796 43.9701C44.7751 42.9083 43.6676 42.2944 42.6058 42.5988Z" fill="#F3EEEA"/>
<path d="M40.8316 54.551L24.4902 59.2368C23.4284 59.5413 22.8144 60.6488 23.1189 61.7106C23.4234 62.7724 24.5309 63.3863 25.5927 63.0819L41.9341 58.396C42.9959 58.0916 43.6099 56.984 43.3054 55.9222C43.0009 54.8604 41.8934 54.2465 40.8316 54.551Z" fill="#F3EEEA"/>
</svg>
